<svg width="52" height="52" viewBox="0 0 52 52" fill="none" xmlns="http://www.w3.org/2000/svg">
<circle cx="26" cy="26" r="24" fill="#245490" stroke="#245490" stroke-width="2"/>
<path d="M34.0594 39.39C32.9284 39 31.7974 39 30.6664 39H16.3924L24.1534 29.952C26.7274 27.027 29.5354 22.971 29.5354 19.032C29.5354 15.951 27.7804 14.859 25.6354 14.859C23.3734 14.859 19.8244 16.185 18.0304 21.528V12.246C18.4984 13.338 19.1224 13.923 20.1364 13.923C21.5794 13.923 23.4514 12.714 26.6884 12.714C31.4074 12.714 34.1764 15.171 34.1764 19.032C34.1764 22.776 31.5244 25.935 25.6744 31.317L21.1894 35.217H28.4434C31.4854 35.217 32.7724 34.359 34.0594 30.381V39.39Z" fill="white"/>
</svg>
