<svg width="52" height="52" viewBox="0 0 52 52" fill="none" xmlns="http://www.w3.org/2000/svg">
<circle cx="26" cy="26" r="24" fill="#245490" stroke="#245490" stroke-width="2"/>
<path d="M17.5108 30.225C19.3828 35.724 23.0098 37.245 25.3888 37.245C28.0018 37.245 30.3028 35.529 30.3028 31.746C30.3028 27.495 27.3388 25.506 23.0098 26.286C27.2608 23.829 29.0158 21.333 29.0158 18.603C29.0158 16.224 27.6898 14.859 25.3498 14.859C23.0098 14.859 19.7728 16.38 18.0568 21.255V12.246C18.5248 13.338 19.1488 13.923 20.2018 13.923C21.6058 13.923 23.4388 12.714 26.7148 12.714C30.8098 12.714 33.5788 14.664 33.5788 17.745C33.5788 20.319 31.7068 22.308 27.4168 24.024C32.0188 24.102 34.9438 26.871 34.9438 31.005C34.9438 36.192 30.3808 39.39 25.7788 39.39C22.7758 39.39 21.0598 38.025 19.6168 38.025C18.6418 38.025 17.9398 38.649 17.5108 39.78V30.225Z" fill="white"/>
</svg>
