<svg width="40" height="40" viewBox="0 0 40 40" fill="none" xmlns="http://www.w3.org/2000/svg">
<circle cx="20" cy="20" r="19.25" fill="white" stroke="#245490" stroke-width="1.5"/>
<path d="M9.48432 21.0555C10.4443 23.8755 12.3043 24.6555 13.5243 24.6555C14.8643 24.6555 16.0443 23.7755 16.0443 21.8355C16.0443 19.6555 14.5243 18.6355 12.3043 19.0355C14.4843 17.7755 15.3843 16.4955 15.3843 15.0955C15.3843 13.8755 14.7043 13.1755 13.5043 13.1755C12.3043 13.1755 10.6443 13.9555 9.76432 16.4555V11.8355C10.0043 12.3955 10.3243 12.6955 10.8643 12.6955C11.5843 12.6955 12.5243 12.0755 14.2043 12.0755C16.3043 12.0755 17.7243 13.0755 17.7243 14.6555C17.7243 15.9755 16.7643 16.9955 14.5643 17.8755C16.9243 17.9155 18.4243 19.3355 18.4243 21.4555C18.4243 24.1155 16.0843 25.7555 13.7243 25.7555C12.1843 25.7555 11.3043 25.0555 10.5643 25.0555C10.0643 25.0555 9.70432 25.3755 9.48432 25.9555V21.0555ZM25.2712 25.7555C21.9312 25.7555 19.8712 22.9555 19.8712 18.8955C19.8712 14.8955 21.9512 12.0555 25.2712 12.0555C28.5912 12.0555 30.6712 14.8955 30.6712 18.8955C30.6712 22.9555 28.6112 25.7555 25.2712 25.7555ZM22.3112 18.8955C22.3112 22.1955 22.8712 24.6555 25.2712 24.6555C27.6712 24.6555 28.2312 22.1955 28.2312 18.8955C28.2312 15.5955 27.6712 13.1555 25.2712 13.1555C22.8712 13.1555 22.3112 15.5955 22.3112 18.8955Z" fill="#245490"/>
</svg>
